<?xml version="1.0" encoding="utf-8"?>
<svg version="1.1" xmlns="http://www.w3.org/2000/svg" xmlns:xlink="http://www.w3.org/1999/xlink" viewBox="0 0 18 18" enable-background="new 0 0 18 18">
 <defs>
  <clipPath id="SVGID_2_">
   <use xlink:href="#SVGID_1_"/>
  </clipPath>
  <rect id="SVGID_1_" width="18" height="18"/>
 </defs>
 <g>
  <g clip-path="url(#SVGID_2_)">
   <path d="M14,14.3C11.4,12.3,13.2,4,13.2,4s2.8,0,3.1,0C16.7,4,18,3.8,18,2.3c0-1.9-1.6-1.8-1.6-1.8s-8.6,0-11.6,0
			C3,0.5,1.2,2.7,0.3,4.2C-0.3,5,0,5.3,0.9,4.9C4.1,3.5,5,4,5,4c0.2,1.1,0.3,5.9-0.5,7.8c-0.8,1.8-2.3,4-0.1,5.4
			c1.7,1,3.6-1,3.4-4.5C7.6,10.8,7.5,4,7.5,4h2.9c-0.1,1.1-0.6,6.5-0.1,9.7c0.5,5.4,6.4,4.3,7.5,1.3c0.3-0.8,0.2-1.5,0-2
			c-0.4-0.9-1-1-0.9-0.5c0,0.3,0,0.5,0,0.8C16.7,14,15.2,15.2,14,14.3z"/>
  </g>
 </g>
</svg>
